<svg width="509" height="509" xmlns="http://www.w3.org/2000/svg" xmlns:xlink="http://www.w3.org/1999/xlink" xml:space="preserve" overflow="hidden"><g transform="translate(-1082 -1616)"><path d="M1089 1870.5C1089 1733.81 1199.81 1623 1336.5 1623 1473.19 1623 1584 1733.81 1584 1870.5 1584 2007.19 1473.19 2118 1336.5 2118 1199.81 2118 1089 2007.19 1089 1870.5Z" stroke="#434343" stroke-width="13.75" stroke-miterlimit="8" fill="#FFFFFF" fill-rule="evenodd"/><g><g><g><path d="M1448.2 1783.59 1409.09 1783.59C1403.76 1783.59 1399.44 1787.92 1399.44 1793.25 1399.44 1798.58 1403.76 1802.91 1409.09 1802.91L1448.2 1802.91C1453.35 1803.16 1457.38 1807.41 1457.38 1812.56L1457.38 1939.06C1457.13 1944.02 1453.16 1947.99 1448.2 1948.23L1235.28 1948.23C1230.13 1948.24 1225.88 1944.2 1225.62 1939.06L1225.62 1928.44C1225.62 1923.1 1221.3 1918.78 1215.97 1918.78 1210.64 1918.78 1206.31 1923.1 1206.31 1928.44L1206.31 1938.58C1206.58 1954.39 1219.47 1967.06 1235.28 1967.06L1448.68 1967.06C1464.12 1966.55 1476.44 1954.02 1476.69 1938.58L1476.69 1812.56C1476.69 1796.75 1464.01 1783.86 1448.2 1783.59Z"/><path d="M1215.97 1899.47C1221.3 1899.47 1225.62 1895.15 1225.62 1889.81L1225.62 1841.53 1428.41 1841.53C1433.74 1841.53 1438.06 1837.21 1438.06 1831.88 1438.06 1826.54 1433.74 1822.22 1428.41 1822.22L1225.62 1822.22 1225.62 1812.56C1225.62 1807.23 1229.95 1802.91 1235.28 1802.91L1370.47 1802.91C1375.8 1802.91 1380.12 1798.58 1380.12 1793.25 1380.12 1787.92 1375.8 1783.59 1370.47 1783.59L1235.28 1783.59C1219.28 1783.59 1206.31 1796.56 1206.31 1812.56L1206.31 1889.81C1206.31 1895.15 1210.64 1899.47 1215.97 1899.47Z"/><path d="M1254.59 1909.12C1249.26 1909.12 1244.94 1913.45 1244.94 1918.78 1244.94 1924.11 1249.26 1928.44 1254.59 1928.44L1293.22 1928.44C1298.55 1928.44 1302.88 1924.11 1302.88 1918.78 1302.88 1913.45 1298.55 1909.12 1293.22 1909.12Z"/></g></g></g></g></svg>