<?xml version="1.0" encoding="utf-8"?>
<!-- Generator: Adobe Illustrator 22.1.0, SVG Export Plug-In . SVG Version: 6.00 Build 0)  -->
<svg version="1.1" id="Layer_1" xmlns="http://www.w3.org/2000/svg" xmlns:xlink="http://www.w3.org/1999/xlink" x="0px" y="0px"
	 viewBox="0 0 512 512" style="enable-background:new 0 0 512 512;" xml:space="preserve">
<style type="text/css">
	.st0{fill:#6770E6;}
	.st1{fill:#5861C7;}
	.st2{fill:#FFEFE4;}
	.st3{fill:#D476E2;}
	.st4{fill:#EA82FA;}
	.st5{fill:#B665C2;}
	.st6{fill:#69EBFC;}
	.st7{fill:#FF8354;}
	.st8{fill:#333399;}
	.st9{fill:#E0734A;}
	.st10{fill:#FFAC8C;}
	.st11{fill:#382F8B;}
	.st12{fill:#C7FCFE;}
	.st13{fill:#EDD4C2;}
	.st14{fill:#8F95E6;}
	.st15{fill:#A1F1FC;}
	.st16{fill:#FFF7F2;}
	.st17{opacity:0.8;fill:#A1F1FC;}
	.st18{fill:#4C54AD;}
	.st19{fill:#5FD4E3;}
	.st20{fill:#FFE4D1;}
	.st21{fill:#5ED4E3;}
	.st22{fill:#56C1CF;}
	.st23{fill:#9FA5FF;}
	.st24{fill:#C46541;}
	.st25{fill:#FFCAB5;}
	.st26{fill:#5A62C9;}
	.st27{fill:#BABEFF;}
</style>
<g>
	<g>
		<path class="st0" d="M0,80v414c0,9.941,8.059,18,18,18h24c9.941,0,18-8.059,18-18v0c0-9.941,8.059-18,18-18h356
			c9.941,0,18,8.059,18,18v0c0,9.941,8.059,18,18,18h24c9.941,0,18-8.059,18-18V80H0z"/>
	</g>
	<g>
		<path class="st1" d="M494,492h-24c-9.941,0-18-8.059-18-18s-8.059-18-18-18H78c-9.941,0-18,8.059-18,18s-8.059,18-18,18H18
			c-9.941,0-18-8.059-18-18v20c0,9.941,8.059,18,18,18h24c9.941,0,18-8.059,18-18s8.059-18,18-18h356c9.941,0,18,8.059,18,18
			s8.059,18,18,18h24c9.941,0,18-8.059,18-18v-20C512,483.941,503.941,492,494,492z"/>
	</g>
	<g>
		<path class="st2" d="M60,416V140c0-9.941,8.059-18,18-18h356c9.941,0,18,8.059,18,18v276c0,9.941-8.059,18-18,18H78
			C68.059,434,60,425.941,60,416z"/>
	</g>
	<g>
		<path class="st3" d="M512,80H0V18C0,8.059,8.059,0,18,0h476c9.941,0,18,8.059,18,18V80z"/>
	</g>
	<g>
		<path class="st4" d="M494,0H18C8.059,0,0,8.059,0,18v20c0-9.941,8.059-18,18-18h476c9.941,0,18,8.059,18,18V18
			C512,8.059,503.941,0,494,0z"/>
	</g>
	<g>
		<rect x="140" class="st5" width="232" height="80"/>
	</g>
	<g>
		<rect x="140" class="st3" width="232" height="20"/>
	</g>
	<g>
		<circle class="st6" cx="180" cy="40" r="16"/>
	</g>
	<g>
		<path class="st7" d="M264,52h-36c-6.627,0-12-5.373-12-12v0c0-6.627,5.373-12,12-12h36c6.627,0,12,5.373,12,12v0
			C276,46.627,270.627,52,264,52z"/>
	</g>
	<g>
		<path class="st7" d="M332,52h-36c-6.627,0-12-5.373-12-12v0c0-6.627,5.373-12,12-12h36c6.627,0,12,5.373,12,12v0
			C344,46.627,338.627,52,332,52z"/>
	</g>
	<rect x="60" y="160" class="st5" width="392" height="20"/>
	<path class="st8" d="M198,158.496v23.007c0,3.588,2.909,6.496,6.496,6.496h21.007c3.588,0,6.496,2.909,6.496,6.496V220h48v-25.504
		c0-3.588,2.909-6.496,6.496-6.496h21.007c3.588,0,6.496-2.909,6.496-6.496v-23.007c0-3.588-2.909-6.496-6.496-6.496H204.496
		C200.909,152,198,154.909,198,158.496z"/>
	<g>
		<path class="st3" d="M280,220h-48l17.439,20.927c1.623,1.947,4.026,3.073,6.561,3.073l0,0c2.535,0,4.938-1.126,6.561-3.073
			L280,220z"/>
	</g>
	<path class="st5" d="M115.696,299.765h-9.933c-1.141-4.155-2.825-8.083-4.978-11.702l6.885-6.885c1.462-1.462,1.462-3.831,0-5.293
		l-12.003-12.004c-1.462-1.462-3.831-1.462-5.293,0l-7.055,7.054c-3.65-2.078-7.594-3.696-11.764-4.758v-9.765
		c0-2.067-1.676-3.742-3.742-3.742H60v33.819c14.214,0.135,25.695,11.694,25.695,25.94c0,14.245-11.482,25.805-25.695,25.94v33.739
		h8.601c2.067,0,3.742-1.676,3.742-3.742v-9.904c4.166-1.137,8.105-2.821,11.734-4.976l6.854,6.854c1.462,1.462,3.831,1.462,5.293,0
		l12.004-12.004c1.462-1.462,1.462-3.831,0-5.292l-7.007-7.007c2.09-3.663,3.717-7.624,4.782-11.812h9.693
		c2.067,0,3.742-1.676,3.742-3.742v-16.976C119.438,301.44,117.762,299.765,115.696,299.765z"/>
	<path class="st3" d="M202.521,273.53l-6.471,4.677c-2.699-2.169-5.646-3.936-8.753-5.279l1.244-7.727
		c0.264-1.64-0.852-3.184-2.492-3.448l-13.471-2.168c-1.64-0.264-3.184,0.852-3.448,2.492l-1.274,7.917
		c-3.356,0.365-6.687,1.167-9.904,2.439l-4.597-6.361c-0.973-1.346-2.854-1.649-4.2-0.676l-11.059,7.992
		c-1.346,0.973-1.649,2.854-0.676,4.2l4.708,6.514c-2.162,2.689-3.923,5.623-5.265,8.717l-7.773-1.251
		c-1.64-0.264-3.184,0.851-3.448,2.492l-2.168,13.471c-0.264,1.64,0.852,3.184,2.492,3.448l7.939,1.278
		c0.36,3.353,1.156,6.682,2.422,9.897l-6.366,4.601c-1.346,0.973-1.649,2.854-0.676,4.2l7.993,11.059
		c0.973,1.346,2.854,1.649,4.2,0.676l6.495-4.694c2.692,2.171,5.631,3.938,8.73,5.286l-1.245,7.738
		c-0.264,1.64,0.852,3.184,2.492,3.448l13.471,2.168c1.64,0.264,3.184-0.852,3.448-2.492l1.269-7.885
		c3.367-0.359,6.712-1.157,9.939-2.428l4.567,6.319c0.973,1.346,2.854,1.649,4.2,0.676l11.059-7.992
		c1.346-0.973,1.649-2.854,0.676-4.2l-4.663-6.452c2.178-2.702,3.951-5.654,5.301-8.766l7.692,1.238
		c1.64,0.264,3.184-0.852,3.448-2.492l2.168-13.471c0.264-1.64-0.852-3.184-2.492-3.448l-7.863-1.265
		c-0.363-3.37-1.168-6.716-2.446-9.946l6.315-4.564c1.346-0.973,1.649-2.854,0.676-4.2l-7.992-11.058
		C205.748,272.859,203.868,272.556,202.521,273.53z M184.254,325.023c-9.335,6.747-22.372,4.648-29.118-4.686
		c-6.747-9.335-4.649-22.372,4.686-29.118c9.335-6.747,22.372-4.649,29.118,4.686C195.687,305.239,193.589,318.276,184.254,325.023z
		"/>
	<path class="st1" d="M211.431,413.311H198.43c-1.494-5.438-3.698-10.58-6.516-15.317l9.012-9.012c1.913-1.913,1.913-5.015,0-6.927
		l-15.711-15.711c-1.913-1.913-5.014-1.913-6.927,0l-9.234,9.234c-4.777-2.72-9.94-4.838-15.397-6.228v-12.781
		c0-2.705-2.193-4.898-4.898-4.898h-22.219c-2.705,0-4.898,2.193-4.898,4.898v13.088c-5.418,1.487-10.541,3.68-15.264,6.482
		l-9.065-9.065c-1.913-1.913-5.014-1.913-6.927,0l-15.711,15.711c-1.913,1.913-1.913,5.015,0,6.928l9.259,9.259
		c-2.723,4.769-4.849,9.922-6.244,15.372h-12.79c-2.322,0-4.257,1.62-4.761,3.789C61.194,427.066,68.782,434,78,434h26.5
		c-0.163-1.349-0.257-2.72-0.257-4.113c0-18.756,15.205-33.961,33.961-33.961c18.756,0,33.961,15.205,33.961,33.961
		c0,1.393-0.094,2.764-0.257,4.113h44.422v-15.79C216.329,415.504,214.136,413.311,211.431,413.311z"/>
	<path class="st1" d="M384.73,286H452V140c0-9.941-8.059-18-18-18h-85v128.27C349,270.003,364.997,286,384.73,286z"/>
	<path class="st8" d="M391.5,183H452v21h-60.5c-5.799,0-10.5-4.701-10.5-10.5v0C381,187.701,385.701,183,391.5,183z"/>
	<path class="st8" d="M391.5,137H452v21h-60.5c-5.799,0-10.5-4.701-10.5-10.5v0C381,141.701,385.701,137,391.5,137z"/>
	<circle class="st6" cx="383.5" cy="243.5" r="11.5"/>
	<g>
		<path class="st6" d="M352,391h-20v-26.5c0-20.126,16.374-36.5,36.5-36.5c9.098,0,16.5-7.402,16.5-16.5V286h20v25.5
			c0,20.126-16.374,36.5-36.5,36.5c-9.098,0-16.5,7.402-16.5,16.5V391z"/>
	</g>
	<g>
		<rect x="416.346" y="286" class="st6" width="20" height="105"/>
	</g>
	<path class="st1" d="M316.679,391c-9.764,0-17.679,7.915-17.679,17.679V434h135c9.941,0,18-8.059,18-18v-25H316.679z"/>
</g>
</svg>
