<svg width="509" height="509" xmlns="http://www.w3.org/2000/svg" xmlns:xlink="http://www.w3.org/1999/xlink" xml:space="preserve" overflow="hidden"><g transform="translate(-1077 -1616)"><path d="M1084 1870.5C1084 1733.81 1194.81 1623 1331.5 1623 1468.19 1623 1579 1733.81 1579 1870.5 1579 2007.19 1468.19 2118 1331.5 2118 1194.81 2118 1084 2007.19 1084 1870.5Z" stroke="#434343" stroke-width="13.75" stroke-miterlimit="8" fill="#FFFFFF" fill-rule="evenodd"/><g><g><g><path d="M60.6173 95.5042 207.099 95.5042C211.262 95.5042 215.043 97.2036 217.78 99.9408 220.517 102.678 222.217 106.459 222.217 110.622L222.217 226.298C222.217 230.461 220.517 234.242 217.78 236.979 215.042 239.716 211.262 241.416 207.099 241.416L117.16 241.416C116.858 237.265 115.551 233.392 113.481 230.041L207.099 230.041C208.122 230.041 209.057 229.618 209.738 228.937 210.419 228.256 210.841 227.321 210.841 226.298L210.841 110.622C210.841 109.599 210.419 108.664 209.738 107.983 209.057 107.302 208.122 106.88 207.099 106.88L60.6175 106.88C59.5941 106.88 58.6595 107.302 57.9787 107.983 57.298 108.664 56.8752 109.598 56.8752 110.622L56.8752 226.298C56.8752 227.321 57.298 228.256 57.9789 228.937 58.6599 229.618 59.5945 230.041 60.6175 230.041L70.5285 230.041C68.4591 233.392 67.1519 237.265 66.8499 241.416L60.6175 241.416C56.4547 241.416 52.6736 239.716 49.9364 236.979 47.1992 234.242 45.4999 230.461 45.4999 226.298L45.4999 110.622C45.4999 106.459 47.199 102.678 49.9362 99.9405 52.6734 97.2034 56.4543 95.5042 60.6175 95.5042Z" fill="#212121" transform="matrix(1 0 0 1.00275 1159 1688)"/><path d="M216.529 177.764 301.811 177.764C306.407 177.764 310.581 179.64 313.602 182.662 316.625 185.684 318.501 189.859 318.501 194.453L318.501 224.727C318.501 229.321 316.624 233.495 313.602 236.517 310.58 239.54 306.406 241.416 301.811 241.416L285.064 241.416C284.762 237.265 283.455 233.392 281.385 230.041L301.811 230.041C303.266 230.041 304.594 229.441 305.559 228.475 306.525 227.509 307.125 226.181 307.125 224.727L307.125 194.453C307.125 192.998 306.526 191.67 305.56 190.705 304.594 189.739 303.267 189.139 301.811 189.139L216.529 189.139 216.529 177.764ZM234.753 241.416 197.669 241.416 197.669 230.041 238.432 230.041C236.362 233.393 235.055 237.265 234.753 241.416Z" fill="#212121" transform="matrix(1 0 0 1.00275 1159 1688)"/><path d="M216.529 129.453C213.388 129.453 210.842 131.999 210.842 135.14 210.842 138.281 213.388 140.828 216.529 140.828L254.354 140.828 283.152 184.292C284.882 186.905 288.403 187.621 291.017 185.891 293.63 184.161 294.346 180.64 292.616 178.026L262.338 132.327C261.359 130.611 259.512 129.453 257.394 129.453L216.529 129.453Z" fill="#212121" transform="matrix(1 0 0 1.00275 1159 1688)"/><path d="M259.908 218.05C266.872 218.05 273.178 220.874 277.743 225.438 282.308 230.003 285.131 236.309 285.131 243.273 285.131 250.237 282.308 256.543 277.743 261.108 273.178 265.672 266.872 268.496 259.908 268.496 252.944 268.496 246.638 265.672 242.073 261.108 237.509 256.543 234.685 250.237 234.685 243.273 234.685 236.309 237.509 230.003 242.073 225.438 246.638 220.873 252.944 218.05 259.908 218.05ZM269.701 233.481C267.195 230.975 263.733 229.425 259.908 229.425 256.083 229.425 252.621 230.975 250.116 233.481 247.61 235.986 246.06 239.448 246.06 243.273 246.06 247.098 247.61 250.56 250.116 253.065 252.621 255.571 256.083 257.121 259.908 257.121 263.733 257.121 267.195 255.571 269.701 253.065 272.206 250.56 273.756 247.098 273.756 243.273 273.756 239.448 272.206 235.986 269.701 233.481Z" fill="#212121" transform="matrix(1 0 0 1.00275 1159 1688)"/><path d="M92.0054 218.05C98.97 218.05 105.276 220.874 109.84 225.438 114.405 230.003 117.228 236.308 117.228 243.273 117.228 250.237 114.405 256.543 109.84 261.108 105.276 265.672 98.9698 268.496 92.0054 268.496 85.041 268.496 78.7353 265.672 74.1706 261.108 69.606 256.543 66.7825 250.237 66.7825 243.273 66.7825 236.309 69.606 230.003 74.1706 225.438 78.7351 220.874 85.041 218.05 92.0054 218.05ZM101.798 233.481C99.2924 230.975 95.83 229.425 92.0054 229.425 88.1808 229.425 84.7185 230.975 82.2131 233.481 79.7076 235.986 78.1578 239.448 78.1578 243.273 78.1578 247.098 79.7076 250.56 82.2131 253.065 84.7187 255.571 88.181 257.121 92.0054 257.121 95.8299 257.121 99.2922 255.571 101.798 253.065 104.303 250.56 105.853 247.098 105.853 243.273 105.853 239.448 104.303 235.986 101.798 233.481Z" fill="#212121" transform="matrix(1 0 0 1.00275 1159 1688)"/><path d="M312.813 208.148C315.954 208.148 318.501 205.602 318.501 202.461 318.501 199.32 315.954 196.773 312.813 196.773L287.57 196.773C284.429 196.773 281.883 199.32 281.883 202.461 281.883 205.602 284.429 208.148 287.57 208.148L312.813 208.148Z" fill="#212121" transform="matrix(1 0 0 1.00275 1159 1688)"/></g></g></g></g></svg>