<svg xmlns="http://www.w3.org/2000/svg" viewBox="0 0 48 48"><defs><style>.cls-1{fill:#fc6459;}.cls-2{fill:#bfbfbf;}.cls-3{fill:#424242;}</style></defs><title>Solution</title><g id="Solution"><path class="cls-1" d="M42,12V25a3,3,0,0,1-3,3H38V24a2,2,0,0,0-4,0,11,11,0,0,1-.34,4H26V24a3,3,0,0,0,0-6V12h6a3,3,0,0,1,6,0Z"/><path class="cls-2" d="M8,20a3,3,0,0,0,3-3h6v6a3,3,0,0,1,0,6v4H4a3,3,0,0,1-3-3V17H5A3,3,0,0,0,8,20Z"/><path class="cls-3" d="M18,22.13V11a1,1,0,0,0-1-1,2,2,0,0,1,0-4,1,1,0,0,0,1-1V1a1,1,0,0,0-1-1H4A4,4,0,0,0,0,4V30a4,4,0,0,0,4,4H17a1,1,0,0,0,1-1V29.87a4,4,0,0,0,0-7.74ZM2,4A2,2,0,0,1,4,2H16V4.13a4,4,0,0,0,0,7.74V16H11a1,1,0,0,0-1,1,2,2,0,0,1-4,0,1,1,0,0,0-1-1H2ZM17,28a1,1,0,0,0-1,1v3H4a2,2,0,0,1-2-2V18H4.13a4,4,0,0,0,7.74,0H16v5a1,1,0,0,0,1,1,2,2,0,0,1,0,4Z"/><rect class="cls-2" x="33" y="39" width="14" height="4"/><rect class="cls-2" x="34" y="43" width="12" height="4"/><path class="cls-3" d="M48,27.49a7,7,0,0,0-2-5l-3.24-3.24A1,1,0,0,0,42,19v2.41L44.53,24A4.94,4.94,0,0,1,46,27.49c0,2.09.12,3-.52,4.33C44,34.85,44,34.69,44,35v3H36V36.41c0-1.76-2-1.91-2-3.65,0-2.7-.08-2.32.6-4.41a.3.3,0,0,1,0-.1A12,12,0,0,0,35,24a1,1,0,0,1,1.71-.69A.93.93,0,0,1,37,24v6a1,1,0,0,0,2,0V24a3,3,0,0,0-.87-2.11A3,3,0,0,0,33,24a10.76,10.76,0,0,1-.25,3.57s0,.11,0,.12c-.78,2.36-.71,2.07-.71,5.07a4.06,4.06,0,0,0,1.17,2.83l.83.82V38H33a1,1,0,0,0-1,1v4a1,1,0,0,0,1,1v3a1,1,0,0,0,1,1H46a1,1,0,0,0,1-1V44a1,1,0,0,0,1-1V39a1,1,0,0,0-1-1H46V35.24C48.06,31.13,48,31.64,48,27.49ZM34,40H46v2H34Zm11,6H35V44H45Z"/></g></svg>