<svg width="509" height="509" xmlns="http://www.w3.org/2000/svg" xmlns:xlink="http://www.w3.org/1999/xlink" xml:space="preserve" overflow="hidden"><g transform="translate(-1077 -1611)"><path d="M1084 1865.5C1084 1728.81 1194.81 1618 1331.5 1618 1468.19 1618 1579 1728.81 1579 1865.5 1579 2002.19 1468.19 2113 1331.5 2113 1194.81 2113 1084 2002.19 1084 1865.5Z" stroke="#434343" stroke-width="13.75" stroke-miterlimit="8" fill="#FFFFFF" fill-rule="evenodd"/><g><g><g><path d="M1371.1 1818.93C1373.1 1823.74 1377.79 1826.88 1383 1826.87L1447.38 1826.87C1454.49 1826.87 1460.25 1821.11 1460.25 1814L1460.25 1749.62C1460.25 1742.51 1454.48 1736.75 1447.37 1736.75 1443.96 1736.75 1440.69 1738.11 1438.27 1740.52L1412.99 1765.81C1357.93 1720.81 1276.82 1728.95 1231.82 1784.01 1186.81 1839.06 1194.96 1920.17 1250.01 1965.17 1305.07 2010.18 1386.18 2002.03 1431.18 1946.98 1449.98 1923.98 1460.25 1895.2 1460.25 1865.5 1460.25 1858.39 1454.49 1852.62 1447.38 1852.62 1440.26 1852.62 1434.5 1858.39 1434.5 1865.5 1434.62 1922.5 1388.51 1968.8 1331.51 1968.92 1274.51 1969.04 1228.21 1922.93 1228.09 1865.93 1227.97 1808.93 1274.08 1762.63 1331.08 1762.51 1354.07 1762.46 1376.43 1770.09 1394.59 1784.19L1373.9 1804.9C1370.21 1808.58 1369.11 1814.12 1371.1 1818.93ZM1434.5 1801.12 1414.08 1801.12 1434.5 1780.71Z" fill="#1C1B1E"/></g></g></g></g></svg>