<svg xmlns="http://www.w3.org/2000/svg" viewBox="0 0 48 48"><defs><style>.cls-1{fill:#bfbfbf;}.cls-2{fill:#424242;}.cls-3{fill:#fc6459;}</style></defs><title>Prototype</title><g id="Prototype"><path class="cls-1" d="M21,20a3.34,3.34,0,0,0-2.05.67,1.53,1.53,0,0,1-1.9,0A3.34,3.34,0,0,0,15,20a1,1,0,0,0,0,2c.17,0,0-.72,1,7.12a1,1,0,0,0,2-.24l-.74-6a3.45,3.45,0,0,0,1.5,0l-.74,6a1,1,0,0,0,2,.24c1-7.81.84-7.12,1-7.12a1,1,0,0,0,0-2Z"/><path class="cls-1" d="M7,4V33H5a4,4,0,0,0-4,4V8A4,4,0,0,1,5,4Z"/><path class="cls-1" d="M47,44a3,3,0,0,1-3,3H31V41H44A3,3,0,0,1,47,44Z"/><path class="cls-2" d="M26,20.1A8.08,8.08,0,0,0,18.1,12,8,8,0,0,0,10,20c0,3.57,1.87,4.24,2.79,8A1,1,0,0,0,13,30v2a1,1,0,0,0,0,2h1.22l.62,2.49A2,2,0,0,0,16.78,38h2.44a2,2,0,0,0,1.94-1.51L21.78,34H23a1,1,0,0,0,0-2V30a1,1,0,0,0,.21-2C24.1,24.4,26,23.58,26,20.1ZM19.22,36H16.78l-.5-2h3.44ZM15,32V30h6v2Zm6.16-4H14.84a15.82,15.82,0,0,0-2-4.92,6,6,0,1,1,11.15-3C24,23,22,23.79,21.16,28Z"/><path class="cls-1" d="M40.5,38H25a1,1,0,0,1,0-2H40.5a1.5,1.5,0,0,0,0-3h-9a3.5,3.5,0,0,1,0-7H33a1,1,0,0,1,0,2H31.5a1.5,1.5,0,0,0,0,3h9a3.5,3.5,0,0,1,0,7Z"/><path class="cls-2" d="M44,8H8V4A1,1,0,0,0,7,3H5A5,5,0,0,0,0,8V37a5,5,0,0,0,5,5H30v5a1,1,0,0,0,1,1H44a4,4,0,0,0,4-4V12A4,4,0,0,0,44,8ZM2,8A3,3,0,0,1,5,5H6V32a5.56,5.56,0,0,0-4,1ZM44,46H32V42H44a2,2,0,0,1,0,4Zm2-5.44A3.91,3.91,0,0,0,44,40H5a3,3,0,0,1,0-6H7a1,1,0,0,0,1-1V10H44a2,2,0,0,1,2,2Z"/><path class="cls-3" d="M41,3V4H35V3a3,3,0,0,1,6,0Z"/><polygon class="cls-3" points="35.6 24 40.4 24 38 28 35.6 24"/><rect class="cls-3" x="35" y="6" width="6" height="16"/></g></svg>