<svg xmlns="http://www.w3.org/2000/svg" viewBox="0 0 48 48"><defs><style>.cls-1{fill:#bfbfbf;}.cls-2{fill:#424242;}.cls-3{fill:#fc6459;}</style></defs><title>Layer</title><g id="Layer"><path class="cls-1" d="M47,33v6a2,2,0,0,1-2,2H3a2,2,0,0,1-2-2V33Z"/><path class="cls-2" d="M45,4H3A3,3,0,0,0,0,7V39a3,3,0,0,0,3,3H17.82l-.67,4H16a1,1,0,0,0,0,2H32a1,1,0,0,0,0-2H30.85l-.67-4H45a3,3,0,0,0,3-3V7A3,3,0,0,0,45,4ZM3,6H45a1,1,0,0,1,1,1V32H2V7A1,1,0,0,1,3,6ZM28.82,46H19.18l.67-4h8.3ZM45,40H3a1,1,0,0,1-1-1V34H46v5A1,1,0,0,1,45,40Z"/><circle class="cls-2" cx="24" cy="37" r="1"/><polygon class="cls-3" points="40 5 24 10 8 5 24 0 40 5"/><polygon class="cls-3" points="40 11 24 16 8 11 14.24 9.05 24 12.1 33.76 9.05 40 11"/><polygon class="cls-3" points="40 17 24 22 8 17 14.24 15.05 24 18.1 33.76 15.05 40 17"/><path class="cls-1" d="M14.29,26.29l-.29.3V23a1,1,0,0,0-2,0v3.59l-.29-.3a1,1,0,0,0-1.42,1.42c2.09,2.08,2.06,2.1,2.33,2.21a.92.92,0,0,0,.76,0c.25-.1.13,0,2.33-2.21a1,1,0,0,0-1.42-1.42Z"/><path class="cls-1" d="M37.71,26.29a1,1,0,0,0-1.42,0l-.29.3V23a1,1,0,0,0-2,0v3.59l-.29-.3a1,1,0,0,0-1.42,1.42l2,2a1,1,0,0,0,1.42,0l2-2A1,1,0,0,0,37.71,26.29Z"/></g></svg>